<mxfile host="65bd71144e">
    <diagram id="SNpKsATXZWVPPaT4IZkq" name="login flussdiagramm">
        <mxGraphModel dx="1714" dy="440" grid="1" gridSize="10" guides="1" tooltips="1" connect="1" arrows="1" fold="1" page="1" pageScale="1" pageWidth="850" pageHeight="1100" math="0" shadow="0">
            <root>
                <mxCell id="0"/>
                <mxCell id="1" parent="0"/>
                <mxCell id="13" value="" style="whiteSpace=wrap;html=1;aspect=fixed;fillColor=#eeeeee;strokeColor=#36393d;" vertex="1" parent="1">
                    <mxGeometry x="-10" y="10" width="820" height="820" as="geometry"/>
                </mxCell>
                <mxCell id="21" style="edgeStyle=none;html=1;strokeColor=#0f0f0f;fontColor=#0d0c0c;" edge="1" parent="1" source="4">
                    <mxGeometry relative="1" as="geometry">
                        <mxPoint x="330" y="160" as="targetPoint"/>
                    </mxGeometry>
                </mxCell>
                <mxCell id="4" value="&lt;font color=&quot;#000000&quot;&gt;Open Page&lt;br&gt;(Session Start)&lt;br&gt;&lt;/font&gt;" style="ellipse;whiteSpace=wrap;html=1;fillColor=#f9f7ed;strokeColor=#36393d;" vertex="1" parent="1">
                    <mxGeometry x="270" y="40" width="120" height="80" as="geometry"/>
                </mxCell>
                <mxCell id="22" style="edgeStyle=none;html=1;strokeColor=#0f0f0f;fontColor=#0d0c0c;" edge="1" parent="1">
                    <mxGeometry relative="1" as="geometry">
                        <mxPoint x="330" y="220" as="sourcePoint"/>
                        <mxPoint x="330" y="270" as="targetPoint"/>
                    </mxGeometry>
                </mxCell>
                <mxCell id="11" style="edgeStyle=none;html=1;fontColor=#000000;strokeColor=#0f0f0f;" edge="1" parent="1" source="8">
                    <mxGeometry relative="1" as="geometry">
                        <mxPoint x="500" y="445" as="targetPoint"/>
                    </mxGeometry>
                </mxCell>
                <mxCell id="12" value="No" style="edgeLabel;html=1;align=center;verticalAlign=middle;resizable=0;points=[];fontColor=#000000;labelBackgroundColor=none;" vertex="1" connectable="0" parent="11">
                    <mxGeometry x="-0.3886" y="2" relative="1" as="geometry">
                        <mxPoint x="-9" y="-13" as="offset"/>
                    </mxGeometry>
                </mxCell>
                <mxCell id="16" style="edgeStyle=none;html=1;entryX=0.5;entryY=0;entryDx=0;entryDy=0;strokeColor=#0f0f0f;fontColor=#000000;" edge="1" parent="1" source="8">
                    <mxGeometry relative="1" as="geometry">
                        <mxPoint x="330" y="480" as="targetPoint"/>
                    </mxGeometry>
                </mxCell>
                <mxCell id="29" value="" style="edgeStyle=none;html=1;strokeColor=#0f0f0f;fontColor=#121212;entryX=0.5;entryY=0;entryDx=0;entryDy=0;" edge="1" parent="1" source="8" target="36">
                    <mxGeometry relative="1" as="geometry"/>
                </mxCell>
                <mxCell id="8" value="&lt;font color=&quot;#000000&quot;&gt;Is user available with correct password?&lt;/font&gt;" style="rhombus;whiteSpace=wrap;html=1;fillColor=#f9f7ed;strokeColor=#36393d;" vertex="1" parent="1">
                    <mxGeometry x="255" y="380" width="150" height="130" as="geometry"/>
                </mxCell>
                <mxCell id="27" style="edgeStyle=none;html=1;entryX=1;entryY=0.5;entryDx=0;entryDy=0;strokeColor=#0f0f0f;fontColor=#0d0c0c;" edge="1" parent="1" source="10" target="30">
                    <mxGeometry relative="1" as="geometry">
                        <Array as="points">
                            <mxPoint x="560" y="300"/>
                        </Array>
                    </mxGeometry>
                </mxCell>
                <mxCell id="10" value="&lt;font color=&quot;#000000&quot;&gt;Give user error Response&lt;/font&gt;" style="rounded=0;whiteSpace=wrap;html=1;fillColor=#f9f7ed;strokeColor=#36393d;" vertex="1" parent="1">
                    <mxGeometry x="500" y="415" width="120" height="60" as="geometry"/>
                </mxCell>
                <mxCell id="18" value="Yes" style="edgeLabel;html=1;align=center;verticalAlign=middle;resizable=0;points=[];fontColor=#000000;labelBackgroundColor=none;" vertex="1" connectable="0" parent="1">
                    <mxGeometry x="360" y="475" as="geometry">
                        <mxPoint x="-15" y="60" as="offset"/>
                    </mxGeometry>
                </mxCell>
                <mxCell id="31" style="edgeStyle=none;html=1;strokeColor=#0f0f0f;fontColor=#0d0d0d;entryX=0;entryY=0.5;entryDx=0;entryDy=0;" edge="1" parent="1" source="28">
                    <mxGeometry relative="1" as="geometry">
                        <mxPoint x="270" y="190" as="targetPoint"/>
                    </mxGeometry>
                </mxCell>
                <mxCell id="28" value="Datatable user" style="shape=document;whiteSpace=wrap;html=1;boundedLbl=1;labelBackgroundColor=none;fillColor=#f9f7ed;strokeColor=#36393d;fontColor=#121212;" vertex="1" parent="1">
                    <mxGeometry x="80" y="150" width="120" height="80" as="geometry"/>
                </mxCell>
                <mxCell id="32" style="edgeStyle=none;html=1;entryX=0.5;entryY=0;entryDx=0;entryDy=0;strokeColor=#0f0f0f;fontColor=#0d0d0d;" edge="1" parent="1" source="30" target="8">
                    <mxGeometry relative="1" as="geometry"/>
                </mxCell>
                <mxCell id="30" value="Get username and password" style="rounded=0;whiteSpace=wrap;html=1;labelBackgroundColor=none;fillColor=#f9f7ed;strokeColor=#36393d;fontColor=#0d0d0d;" vertex="1" parent="1">
                    <mxGeometry x="270" y="270" width="120" height="60" as="geometry"/>
                </mxCell>
                <mxCell id="33" value="&lt;span style=&quot;color: rgb(13, 13, 13);&quot;&gt;Get information from database&lt;/span&gt;" style="shape=process;whiteSpace=wrap;html=1;backgroundOutline=1;labelBackgroundColor=none;fillColor=#f9f7ed;strokeColor=#36393d;" vertex="1" parent="1">
                    <mxGeometry x="270" y="160" width="120" height="60" as="geometry"/>
                </mxCell>
                <mxCell id="34" value="&lt;span style=&quot;color: rgb(13, 13, 13);&quot;&gt;Get username and password&lt;/span&gt;" style="shape=process;whiteSpace=wrap;html=1;backgroundOutline=1;labelBackgroundColor=none;fillColor=#f9f7ed;strokeColor=#36393d;" vertex="1" parent="1">
                    <mxGeometry x="270" y="270" width="120" height="60" as="geometry"/>
                </mxCell>
                <mxCell id="35" value="&lt;span style=&quot;color: rgb(0, 0, 0);&quot;&gt;Give user error Response&lt;/span&gt;" style="shape=process;whiteSpace=wrap;html=1;backgroundOutline=1;labelBackgroundColor=none;fillColor=#f9f7ed;strokeColor=#36393d;" vertex="1" parent="1">
                    <mxGeometry x="500" y="415" width="120" height="60" as="geometry"/>
                </mxCell>
                <mxCell id="38" style="edgeStyle=none;html=1;strokeColor=#0f0f0f;fontColor=#0d0c0c;" edge="1" parent="1" source="36" target="37">
                    <mxGeometry relative="1" as="geometry"/>
                </mxCell>
                <mxCell id="36" value="&lt;span style=&quot;color: rgb(13, 12, 12);&quot;&gt;Redirect user to homepage&lt;/span&gt;" style="shape=process;whiteSpace=wrap;html=1;backgroundOutline=1;labelBackgroundColor=none;fillColor=#f9f7ed;strokeColor=#36393d;" vertex="1" parent="1">
                    <mxGeometry x="270" y="560" width="120" height="60" as="geometry"/>
                </mxCell>
                <mxCell id="37" value="&lt;font color=&quot;#0d0c0c&quot;&gt;End&lt;/font&gt;" style="ellipse;whiteSpace=wrap;html=1;labelBackgroundColor=none;fillColor=#f9f7ed;strokeColor=#36393d;" vertex="1" parent="1">
                    <mxGeometry x="270" y="680" width="120" height="80" as="geometry"/>
                </mxCell>
            </root>
        </mxGraphModel>
    </diagram>
</mxfile>